<?xml version="1.0" standalone="no"?>
<!DOCTYPE svg PUBLIC "-//W3C//DTD SVG 20010904//EN"
 "http://www.w3.org/TR/2001/REC-SVG-20010904/DTD/svg10.dtd">
<svg version="1.0" xmlns="http://www.w3.org/2000/svg"
 width="1024.000000pt" height="1024.000000pt" viewBox="0 0 1024.000000 1024.000000"
 preserveAspectRatio="xMidYMid meet">

<g transform="translate(0.000000,1024.000000) scale(0.100000,-0.100000)"
fill="#000000" stroke="none">
<path d="M0 6542 c0 -2034 3 -3702 7 -3705 3 -4 12 -2 20 4 16 14 46 -7 36
-25 -3 -6 -2 -7 3 -3 5 5 9 14 9 20 0 7 9 13 20 14 11 2 14 0 7 -3 -6 -3 -9
-10 -6 -15 3 -6 11 -4 17 5 13 15 27 19 65 17 13 0 20 -5 17 -11 -3 -5 -1 -10
4 -10 6 0 11 4 11 9 0 5 11 9 25 9 13 0 22 -4 19 -9 -3 -5 2 -6 10 -3 9 3 16
10 16 14 0 5 9 6 20 3 11 -3 20 -9 20 -14 0 -5 5 -9 11 -9 5 0 7 4 4 10 -3 5
0 7 8 4 8 -3 18 -1 22 5 8 14 25 14 25 0 0 -5 -5 -7 -11 -3 -8 4 -8 1 0 -14
10 -18 41 -22 41 -5 0 3 -7 3 -15 -1 -22 -8 -18 11 4 24 22 11 84 2 75 -11 -3
-5 0 -9 5 -9 6 0 11 7 11 15 0 9 6 12 17 8 12 -5 14 -3 8 8 -8 12 -6 12 8 0
18 -14 23 -26 8 -16 -5 3 -12 1 -16 -4 -10 -17 49 -1 62 16 11 15 13 15 19 0
3 -9 3 -22 -1 -29 -4 -7 0 -5 7 4 13 15 17 15 42 2 38 -19 43 -18 15 6 -13 10
-19 19 -14 20 6 0 16 -5 23 -12 8 -8 15 -8 28 3 16 13 17 12 10 -6 -6 -16 -5
-18 5 -8 7 7 20 13 28 13 11 0 10 -4 -5 -15 -25 -19 -5 -19 23 0 14 10 20 22
17 33 -5 14 -4 14 4 2 6 -8 9 -17 6 -21 -2 -4 3 -10 12 -13 24 -9 31 -7 14 5
-12 9 -11 10 8 6 15 -4 22 0 22 10 0 8 5 11 10 8 6 -4 8 -11 5 -16 -3 -5 2 -6
11 -2 11 4 15 3 10 -5 -3 -6 -1 -14 5 -18 8 -4 9 -3 5 4 -10 16 26 32 47 21
12 -7 17 -6 17 2 0 8 4 9 13 0 10 -8 17 -7 25 1 9 9 12 9 12 -1 0 -7 5 -9 10
-6 6 4 7 12 4 18 -3 7 6 -1 21 -18 16 -16 25 -22 22 -13 -8 22 18 31 37 13 17
-17 30 -20 21 -5 -4 6 1 7 11 3 13 -5 15 -3 9 8 -7 11 -6 12 6 2 12 -9 18 -10
27 -1 8 8 13 8 17 -4 4 -10 15 -13 35 -10 17 2 27 9 24 14 -4 6 -1 8 7 6 8 -3
13 -12 11 -22 -2 -9 2 -16 8 -16 6 0 9 4 6 9 -3 4 12 7 34 5 31 -2 40 1 40 13
0 11 4 13 13 6 19 -14 52 -10 49 6 -3 12 -1 12 13 1 9 -7 13 -20 10 -28 -4
-12 -2 -12 8 -4 8 7 18 8 22 4 5 -4 5 -1 1 6 -5 8 0 12 16 12 18 0 20 -2 8
-10 -9 -6 -10 -10 -3 -10 6 0 15 5 18 10 4 6 11 8 16 5 5 -4 9 2 9 12 1 17 1
17 11 1 11 -21 49 -24 49 -5 0 7 3 8 8 2 4 -5 16 -17 26 -25 16 -12 18 -12 11
-1 -6 11 -2 13 23 8 18 -4 34 -2 38 4 4 8 9 7 15 -2 5 -8 9 -9 9 -3 0 6 11 12
25 12 14 0 25 -4 25 -9 0 -5 5 -9 11 -9 6 0 9 6 6 13 -3 8 1 14 9 14 7 0 11
-4 8 -8 -10 -17 20 -21 33 -4 7 11 13 13 13 6 0 -7 5 -9 10 -6 6 4 8 10 6 14
-3 4 1 8 9 8 11 0 12 -5 3 -21 -10 -19 -10 -20 6 -7 13 11 22 12 42 2 36 -16
49 -14 33 6 -13 17 -13 17 6 3 11 -8 24 -19 28 -25 5 -6 7 -3 4 6 -4 12 2 16
24 17 18 0 27 -3 23 -10 -4 -6 1 -6 14 1 28 15 35 14 28 -4 -4 -13 -2 -14 14
-5 11 6 20 8 20 6 0 -3 12 -1 26 5 21 7 32 6 52 -7 13 -9 22 -12 19 -7 -3 4 6
13 19 20 24 11 31 6 17 -13 -5 -5 -1 -1 9 8 20 22 32 23 24 3 -4 -13 -2 -14
14 -5 15 8 20 8 20 -1 0 -8 4 -9 13 0 8 6 17 8 20 4 4 -3 13 0 21 6 11 9 20
10 35 2 29 -16 41 -13 35 7 -5 15 -4 15 6 -1 9 -14 15 -15 25 -7 10 8 16 7 25
-7 9 -16 10 -15 5 7 -5 21 -4 22 5 7 9 -14 15 -15 33 -5 20 10 21 10 8 -5 -7
-10 -9 -17 -3 -17 5 0 15 6 21 14 9 10 21 12 49 5 53 -12 58 -11 36 7 -18 14
-18 15 4 4 12 -6 27 -8 32 -5 5 3 7 -5 5 -17 l-4 -23 18 24 c12 16 21 20 25
12 5 -8 13 -8 28 0 12 7 18 7 14 1 -4 -7 9 -9 34 -8 22 2 40 -1 40 -6 0 -5 8
-5 18 0 9 5 33 8 52 7 19 -1 41 3 49 9 11 8 13 8 8 -1 -4 -6 -3 -14 3 -18 6
-3 10 4 11 17 l0 23 9 -22 c5 -13 12 -23 15 -23 4 0 3 5 0 10 -8 13 1 13 27
-1 11 -6 18 -7 15 -2 -4 5 0 10 7 10 8 0 12 -7 9 -16 -4 -13 -2 -12 7 1 6 10
17 15 26 11 9 -3 20 0 25 8 5 8 9 9 9 3 0 -7 7 -14 14 -17 10 -4 13 -1 9 9 -3
7 0 14 6 14 6 0 11 -5 11 -10 0 -13 21 -9 38 8 12 11 18 10 32 -3 13 -11 20
-13 25 -5 5 7 11 8 19 1 9 -7 16 -5 26 9 10 14 16 16 22 7 4 -6 8 62 9 153 1
91 2 172 3 180 2 8 3 187 4 396 l2 382 38 7 c47 8 81 30 92 59 14 37 1 64 -35
76 -41 14 -70 54 -71 100 0 19 -4 43 -9 53 -4 10 -2 23 4 30 8 10 7 17 -2 27
-10 10 -9 11 1 5 11 -6 12 -3 4 12 -6 11 -9 28 -8 39 2 10 -1 25 -7 32 -6 8
-6 12 2 12 7 0 8 8 2 23 -11 30 -13 2116 -2 2292 10 153 15 175 40 175 9 0 28
6 42 14 24 12 28 11 52 -16 15 -15 27 -33 27 -38 0 -5 5 -12 10 -15 6 -4 9 -1
8 6 -2 6 3 14 11 17 10 3 13 -2 9 -22 -4 -20 -2 -26 8 -22 9 3 11 0 7 -11 -4
-11 -2 -14 5 -9 7 4 12 2 12 -3 0 -6 -6 -11 -14 -11 -8 0 -17 -7 -20 -16 -9
-24 -7 -28 7 -15 24 20 28 -2 5 -27 -13 -14 -18 -22 -11 -18 18 10 27 -32 11
-51 -7 -9 -8 -14 -3 -11 7 4 11 -12 12 -43 1 -39 -3 -49 -16 -49 -14 -1 -14
-2 1 -11 10 -5 15 -16 12 -24 -4 -9 0 -15 7 -15 9 -1 8 -4 -4 -11 -12 -7 -15
-15 -9 -27 4 -9 6 -28 5 -42 -10 -93 -11 -160 -4 -165 5 -3 7 -15 3 -27 -4
-16 -2 -19 9 -13 12 8 12 6 1 -8 -8 -9 -10 -22 -6 -28 4 -8 3 -9 -4 -5 -7 4
-12 2 -12 -3 0 -6 6 -11 13 -11 8 0 7 -4 -3 -11 -11 -8 -12 -12 -2 -16 6 -2
12 -9 12 -14 0 -6 -6 -7 -12 -3 -10 6 -10 5 -1 -7 10 -12 10 -18 1 -27 -9 -9
-9 -12 1 -12 7 0 9 -5 5 -12 -10 -16 -13 -48 -4 -48 8 0 6 -32 -3 -47 -4 -6
-1 -13 5 -16 10 -3 10 -7 -1 -20 -7 -10 -10 -17 -5 -17 13 0 12 -103 -1 -112
-6 -5 -5 -8 3 -8 6 0 12 -5 12 -11 0 -5 -4 -8 -9 -5 -5 3 -9 -10 -8 -28 0 -19
3 -33 6 -31 10 5 6 -149 -3 -164 -6 -10 -5 -12 2 -7 15 9 15 5 2 -30 -8 -19
-7 -31 2 -42 10 -12 10 -16 1 -19 -7 -3 -13 -11 -13 -19 0 -9 4 -13 8 -10 5 3
7 -11 6 -30 -2 -22 1 -32 7 -28 6 3 4 -7 -5 -24 -8 -16 -13 -32 -10 -35 8 -7
12 -87 5 -91 -6 -4 -6 -56 -1 -81 1 -5 1 -14 0 -20 -4 -21 -1 -95 4 -104 4 -5
-2 -14 -11 -20 -11 -6 -13 -11 -5 -11 8 0 13 -10 12 -22 -5 -51 0 -79 12 -72
7 5 8 3 3 -6 -12 -20 -14 -121 -3 -114 6 4 4 -4 -3 -17 -7 -13 -12 -24 -12
-24 0 0 5 -10 12 -22 6 -13 8 -23 4 -23 -9 0 -7 -134 2 -158 3 -7 1 -10 -4 -7
-6 3 -7 -15 -5 -42 8 -73 10 -82 16 -89 4 -3 4 -12 1 -20 -3 -8 0 -14 7 -14 8
0 11 -9 8 -25 -3 -14 -1 -25 6 -25 6 0 5 -4 -3 -9 -9 -6 -10 -11 -3 -15 6 -4
9 -13 5 -21 -3 -8 -2 -27 2 -42 6 -25 7 -25 23 -9 15 15 17 49 18 309 1 202
-2 296 -10 306 -8 11 -8 13 1 7 10 -5 11 11 7 71 -3 43 -6 85 -6 93 -1 8 -6
18 -12 22 -8 6 -8 8 1 8 8 0 11 216 11 863 0 474 3 887 7 917 17 123 54 177
142 210 67 25 68 25 49 -2 -18 -25 -21 -68 -6 -68 6 0 10 -4 10 -10 0 -5 -7
-10 -15 -10 -21 0 -19 -13 4 -30 16 -11 18 -17 9 -34 -6 -12 -11 -23 -10 -26
1 -3 -1 -15 -5 -28 -3 -12 0 -29 7 -37 10 -12 10 -21 1 -41 -9 -20 -11 -225
-11 -793 1 -832 -2 -1050 -12 -1067 -4 -6 -4 -14 -1 -18 12 -12 12 -40 0 -48
-7 -4 -7 -8 -2 -8 6 0 9 -21 7 -47 -1 -27 -2 -74 -2 -105 0 -31 -4 -59 -10
-63 -6 -4 -10 -21 -9 -38 2 -46 -10 -150 -26 -232 -8 -38 -15 -117 -17 -175
l-2 -105 44 -5 c38 -4 45 -8 44 -27 0 -12 3 -20 7 -18 12 8 20 -46 9 -60 -9
-11 -6 -12 12 -8 17 4 20 3 12 -6 -7 -8 -8 -27 -4 -52 5 -26 4 -39 -4 -39 -7
0 -6 -3 2 -8 8 -5 10 -16 6 -27 -4 -10 -3 -16 2 -13 5 4 10 -5 10 -19 2 -19
-2 -23 -15 -19 -13 5 -13 4 2 -8 14 -10 15 -15 5 -19 -9 -4 -10 -6 -1 -6 9 -1
10 -8 3 -25 -5 -13 -6 -26 -4 -29 10 -10 12 -77 2 -77 -7 0 -7 -4 0 -12 11
-14 7 -131 -5 -151 -5 -8 -2 -8 9 1 17 13 17 14 -2 -63 -1 -5 -1 -12 0 -15 7
-20 7 -40 -1 -40 -6 0 -7 -5 -4 -11 10 -16 12 -260 2 -266 -4 -3 0 -14 10 -26
10 -11 13 -17 6 -13 -9 5 -10 -3 -6 -30 4 -26 3 -35 -5 -30 -7 4 -9 -1 -6 -16
10 -41 11 -183 1 -202 -6 -12 -5 -16 1 -12 11 6 7 -122 -4 -163 -4 -15 -3 -22
2 -18 13 7 12 -46 0 -55 -6 -4 -4 -14 5 -24 9 -11 9 -15 2 -10 -16 9 -16 5 -3
-29 5 -14 7 -24 2 -22 -9 6 -8 -115 1 -131 4 -6 3 -13 -2 -16 -11 -7 -9 -116
2 -133 6 -9 3 -11 -9 -6 -13 5 -15 3 -7 -13 5 -10 9 -99 8 -196 -1 -122 2
-178 9 -178 6 0 4 -6 -4 -13 -16 -12 -17 -28 -6 -82 3 -18 1 -32 -7 -37 -7 -4
-7 -8 -2 -8 11 0 11 -73 0 -90 -3 -6 -1 -10 6 -10 8 0 9 -3 0 -13 -6 -8 -9
-16 -7 -18 2 -2 6 -17 10 -32 5 -22 4 -27 -6 -21 -10 6 -10 5 -1 -7 13 -16 12
-36 0 -57 -5 -6 -5 -12 0 -12 10 0 9 -71 -1 -88 -4 -7 -2 -20 6 -29 11 -14 11
-16 -2 -8 -13 8 -13 7 -1 -8 8 -10 9 -17 3 -17 -6 0 -10 -9 -9 -20 1 -11 4
-20 7 -20 8 0 -4 -112 -13 -127 -4 -6 -3 -14 3 -18 5 -3 10 -16 10 -28 0 -12
0 -31 0 -42 0 -11 0 -29 0 -40 1 -11 1 -24 0 -30 0 -5 -2 -49 -3 -96 -4 -126
0 -123 -177 -115 -80 3 -170 9 -201 12 -47 6 -56 4 -56 -10 0 -19 8 -20 27 -4
7 8 6 3 -3 -11 -15 -23 -15 -25 1 -38 9 -8 12 -12 6 -9 -14 7 -27 -21 -14 -29
6 -4 10 -12 9 -18 0 -9 -2 -8 -6 1 -2 6 -9 10 -13 7 -5 -3 -6 -13 -3 -22 4
-11 3 -14 -5 -9 -9 5 -10 1 -3 -16 10 -29 5 -70 -12 -80 -9 -6 -8 -8 3 -8 12
0 12 -2 2 -9 -8 -4 -12 -14 -10 -22 1 -8 -2 -14 -7 -14 -6 0 -9 6 -9 12 1 7
-2 10 -7 7 -5 -2 -11 5 -13 18 -25 122 -28 128 -51 128 -13 0 -31 3 -41 7 -12
4 -15 3 -10 -5 5 -9 -15 -11 -78 -8 -46 2 -89 7 -95 10 -5 4 -12 2 -16 -4 -4
-6 -11 -7 -17 -4 -16 10 -170 12 -190 2 -14 -7 -16 -5 -11 8 5 13 2 15 -15 10
-12 -3 -31 -9 -42 -12 -13 -3 -20 -1 -20 8 0 9 -2 10 -8 1 -4 -6 -25 -12 -47
-14 -31 -2 -39 0 -37 11 3 12 1 13 -9 3 -14 -14 -43 -18 -36 -5 3 4 -8 7 -25
8 -19 1 -25 -2 -16 -7 8 -5 -3 -7 -27 -6 -22 1 -45 6 -51 10 -7 4 -15 0 -18
-9 -4 -12 -10 -13 -19 -6 -6 6 -42 9 -80 7 -37 -1 -67 2 -67 7 0 5 -5 6 -12 2
-14 -9 -218 -12 -218 -3 0 3 -20 3 -45 -1 -25 -4 -48 -4 -50 1 -4 6 -40 5 -40
-1 0 -1 -8 -3 -18 -5 -9 -2 -17 2 -17 8 0 7 -5 5 -10 -3 -5 -8 -10 -10 -10 -5
0 6 -15 9 -32 8 -18 -1 -33 -2 -33 -3 0 -1 -10 -3 -22 -4 -13 -2 -23 0 -23 4
0 3 -66 6 -147 5 -82 -1 -158 2 -171 7 -14 5 -21 4 -17 -1 6 -10 -110 -5 -127
5 -6 4 -13 1 -17 -5 -5 -7 -20 -9 -39 -5 -18 4 -29 11 -25 17 3 6 1 7 -6 3 -6
-4 -9 -12 -6 -17 8 -12 -22 -12 -46 1 -10 6 -19 7 -19 3 0 -5 -12 -10 -27 -11
-22 -1 -24 0 -13 8 9 6 10 10 3 10 -6 0 -14 -4 -17 -8 -3 -5 -60 -7 -128 -5
-68 1 -152 4 -188 5 -38 1 -75 -4 -90 -12 -24 -13 -24 -12 -10 5 14 17 14 18
-7 6 -13 -6 -23 -8 -23 -4 0 12 -48 14 -55 3 -3 -6 -11 -10 -16 -10 -6 0 -7 6
-3 13 6 9 5 9 -7 0 -9 -8 -19 -9 -25 -4 -5 5 -27 6 -49 2 -22 -4 -52 -4 -67 0
-16 4 -31 3 -34 -3 -3 -5 -18 -7 -33 -3 -44 12 -56 12 -61 4 -8 -12 -133 -11
-125 1 2 4 -8 5 -23 3 -15 -3 -35 -5 -45 -6 -10 -1 -15 -7 -13 -14 3 -7 -1
-10 -10 -6 -7 3 -14 8 -14 12 0 11 -54 7 -62 -4 -4 -6 -8 -2 -8 8 0 14 -4 16
-19 7 -13 -7 -22 -7 -26 0 -13 22 -35 10 -35 -20 0 -31 23 -51 57 -49 13 1 11
3 -6 8 -14 4 -26 13 -29 21 -2 9 0 11 5 5 14 -18 69 -32 116 -31 26 1 47 -2
47 -7 0 -4 8 -3 19 2 10 6 21 7 25 4 8 -8 26 -12 93 -16 29 -2 56 -6 59 -10 4
-3 15 -2 25 4 11 5 19 6 19 1 0 -4 32 -7 70 -7 39 1 73 -1 75 -5 2 -3 27 -6
54 -5 28 1 51 -2 51 -5 0 -3 9 -6 20 -7 11 -1 20 3 20 9 0 7 4 7 13 -1 10 -8
17 -7 27 2 10 10 11 9 5 -2 -6 -11 -3 -13 13 -9 12 4 22 3 22 -2 0 -4 8 -7 18
-7 102 0 162 -5 157 -12 -3 -6 6 -6 24 -1 16 4 31 7 33 5 2 -2 27 -6 56 -9 30
-3 58 -8 62 -11 5 -3 12 -1 15 5 5 8 11 7 21 -1 8 -6 14 -9 14 -6 0 3 16 1 35
-3 19 -4 35 -4 35 0 0 4 19 4 43 -2 23 -5 87 -11 142 -14 138 -6 230 -11 230
-13 0 -1 34 -4 75 -6 203 -11 289 -16 332 -20 26 -2 90 -6 143 -10 53 -3 117
-8 143 -11 26 -3 76 -7 112 -9 36 -3 97 -8 135 -11 39 -3 90 -7 115 -9 175
-12 251 -19 335 -31 17 -2 62 -6 100 -9 39 -3 88 -7 110 -10 22 -4 99 -12 170
-20 72 -7 186 -20 255 -29 121 -14 175 -19 345 -31 44 -3 105 -8 135 -10 106
-8 337 -16 501 -18 99 -1 165 -6 161 -11 -3 -6 3 -6 14 -2 10 4 31 9 46 11 22
3 26 1 22 -13 -5 -13 -4 -14 4 -3 11 15 94 22 85 7 -4 -5 1 -7 9 -3 9 3 21 0
28 -6 10 -9 11 -9 6 1 -5 8 0 12 14 12 14 0 19 -4 14 -12 -6 -10 -4 -10 7 -2
9 8 129 14 359 18 190 3 359 8 375 10 17 2 82 7 145 11 242 13 569 59 645 90
81 34 80 33 77 257 -3 188 -2 199 15 196 28 -5 31 46 33 517 1 237 3 486 4
555 2 69 5 305 7 525 5 554 6 578 29 593 15 9 18 9 14 -1 -4 -10 9 -12 57 -9
45 3 60 1 55 -7 -4 -6 -12 -8 -18 -5 -7 5 -8 2 -4 -5 6 -9 12 -9 25 3 21 19
35 21 25 4 -6 -9 -3 -9 9 0 9 8 21 11 26 7 6 -3 20 -1 31 5 16 8 18 8 14 -4
-3 -8 0 -17 7 -22 7 -4 10 -3 7 2 -3 5 0 15 8 21 8 9 15 9 19 2 5 -7 11 -7 20
1 10 8 15 8 21 -1 5 -8 3 -9 -6 -4 -8 5 -11 4 -7 -2 3 -5 16 -9 29 -7 13 1 27
3 31 3 5 1 5 7 1 14 -4 6 1 4 12 -5 13 -11 24 -14 30 -8 5 5 25 11 44 15 25 4
31 3 20 -5 -13 -9 -13 -10 0 -11 8 0 25 -2 38 -3 13 -2 25 1 28 6 3 4 10 8 15
8 6 0 8 -4 5 -8 -6 -10 37 -8 74 2 14 4 38 2 54 -4 23 -9 27 -8 23 4 -5 12 -1
12 30 -1 30 -12 37 -12 44 -1 7 10 9 9 9 -4 0 -10 4 -18 10 -18 5 0 7 6 5 13
-4 8 8 13 40 14 25 1 43 -2 40 -7 -3 -5 -12 -7 -19 -4 -8 3 -17 1 -21 -5 -8
-14 20 -9 57 9 16 7 24 18 21 26 -3 8 -3 14 0 14 13 0 15 -31 2 -44 -12 -12
-11 -14 10 -12 15 0 25 7 25 16 0 10 3 11 8 4 8 -12 130 -13 150 0 7 4 27 0
44 -8 24 -12 34 -13 42 -5 8 9 7 10 -3 4 -9 -5 -12 -4 -8 3 8 11 25 11 45 -1
7 -5 12 -3 12 4 0 8 6 6 18 -4 22 -20 37 -11 19 12 -10 14 -10 14 3 5 17 -14
72 -16 64 -3 -3 5 2 6 10 3 9 -3 13 -11 9 -17 -3 -5 -1 -7 5 -3 5 3 12 1 14
-6 3 -7 9 -8 19 -3 8 5 22 8 33 6 13 -2 16 1 10 11 -5 9 -2 8 11 -2 11 -9 16
-10 11 -2 -4 7 -2 12 6 12 8 0 20 -6 27 -12 11 -10 13 -10 7 -1 -4 7 -2 13 3
13 18 0 26 -5 23 -12 -1 -5 2 -8 8 -8 5 0 10 5 10 10 0 6 7 10 15 10 8 0 15
-5 15 -12 0 -9 3 -9 12 0 13 13 50 16 61 5 10 -9 113 -6 129 3 7 5 24 9 37 10
l24 1 -24 -19 c-23 -19 -23 -19 -1 -8 12 6 28 8 34 4 7 -5 8 -3 3 6 -6 10 -4
12 11 6 27 -11 66 -13 86 -4 10 5 18 3 20 -4 3 -7 13 -5 31 7 24 15 27 15 27
2 0 -22 11 -26 40 -14 40 16 50 16 50 -1 0 -14 1 -14 13 1 12 16 39 18 53 4
13 -12 24 -7 24 11 0 14 2 14 9 3 7 -11 13 -12 23 -3 8 6 19 7 27 2 8 -4 19
-6 26 -4 6 3 17 -2 24 -10 12 -14 15 -13 32 7 l18 22 -6 -22 c-4 -18 -1 -23
13 -23 16 0 17 2 4 10 -13 8 -13 10 2 10 9 0 20 -5 23 -10 5 -8 11 -7 21 1 8
6 28 9 44 7 17 -3 33 0 37 5 3 5 9 3 14 -4 7 -11 12 -12 29 -1 11 7 20 9 20 4
0 -4 20 -8 45 -9 29 -1 45 3 45 10 0 7 4 6 10 -3 7 -11 10 -11 10 -2 0 8 5 10
12 6 19 -12 48 -12 49 0 0 6 4 2 9 -9 l9 -20 1 20 c1 18 2 18 13 4 12 -15 78
-16 102 -1 6 4 2 -1 -8 -10 -23 -22 -15 -23 16 -4 24 15 80 19 71 5 -3 -5 0
-9 5 -9 6 0 11 5 11 11 0 7 9 5 24 -4 21 -14 26 -14 36 -2 6 7 19 12 28 10 70
-17 69 -16 45 -6 -31 14 -29 23 5 18 15 -3 26 -10 24 -16 -3 -15 15 -14 21 2
3 9 7 9 17 0 7 -6 19 -9 28 -6 10 4 13 2 8 -5 -4 -7 -3 -12 2 -12 5 0 14 10
20 23 6 12 11 17 11 10 1 -19 38 -36 47 -21 5 7 3 8 -6 3 -8 -5 -11 -4 -6 3 3
6 18 9 32 6 19 -3 24 -1 19 8 -4 7 0 5 9 -5 10 -13 21 -17 37 -12 17 6 19 9 8
16 -9 6 -10 9 -2 9 6 0 15 -4 18 -10 3 -5 15 -10 26 -10 19 0 19 44 19 3705
l0 3705 -5120 0 -5120 0 0 -3698z m4479 2441 c-10 -11 -11 -17 -3 -20 19 -6 4
-43 -17 -43 -15 0 -19 7 -19 31 0 17 -4 28 -10 24 -5 -3 -10 -15 -10 -26 0
-11 -7 -22 -15 -25 -11 -5 -12 -10 -2 -24 6 -11 9 -21 7 -24 -3 -2 -43 -9 -90
-15 -47 -5 -100 -13 -117 -17 -33 -6 -33 -6 -33 33 0 69 49 95 208 112 122 13
117 13 101 -6z m1527 -55 c63 -66 144 -170 144 -186 0 -7 -7 -12 -15 -12 -8 0
-15 -5 -15 -10 0 -6 -11 -15 -25 -22 -19 -8 -28 -8 -40 2 -11 9 -15 9 -15 1 0
-8 -10 -6 -30 4 -16 9 -30 19 -30 24 0 4 -18 29 -40 54 -39 44 -40 46 -20 57
14 8 26 8 43 0 22 -11 22 -11 -2 9 -24 22 -47 28 -36 11 3 -5 1 -10 -5 -10 -7
0 -10 6 -7 13 2 6 0 20 -5 30 -6 13 -5 23 4 34 11 13 11 17 0 21 -10 3 -8 8 5
18 28 21 35 18 89 -38z m-131 33 c-11 -5 -23 -7 -27 -5 -7 5 -2 -51 6 -64 8
-13 -33 -74 -44 -67 -6 3 -10 1 -10 -4 0 -7 -50 -11 -145 -11 -120 0 -143 2
-139 14 3 8 0 17 -5 21 -6 3 -9 10 -7 14 3 4 6 23 8 43 1 19 7 35 12 36 6 1
39 6 74 11 35 5 65 11 67 12 2 2 54 5 117 6 67 1 105 -1 93 -6z m-500 -58 c3
-27 8 -61 10 -78 14 -101 16 -143 7 -149 -15 -9 -39 3 -48 22 -9 22 -21 202
-13 202 3 0 4 11 1 25 -3 20 0 25 16 25 17 0 22 -8 27 -47z m-897 -5 c-3 -7
-11 -13 -18 -13 -7 0 -15 6 -17 13 -3 7 4 12 17 12 13 0 20 -5 18 -12z m-180
-160 l-3 -93 -73 1 c-40 0 -77 5 -82 10 -8 8 2 113 16 162 2 8 26 12 74 12
l71 0 -3 -92z m1620 -124 c9 -9 18 -11 26 -6 6 5 19 8 29 7 9 -2 15 1 11 6 -9
16 464 4 511 -12 78 -27 47 -59 -57 -59 -21 0 -53 -6 -71 -13 -34 -14 -260
-21 -252 -7 2 4 -7 5 -22 2 -15 -3 -24 -1 -20 5 5 9 -33 13 -112 13 -13 0 -29
8 -36 17 -11 15 -13 9 -16 -36 -2 -29 -1 -55 4 -58 29 -18 -14 -23 -193 -23
-110 0 -200 4 -200 8 0 4 5 13 12 20 8 8 8 15 1 24 -14 17 -19 97 -8 122 8 18
18 18 193 11 140 -5 189 -10 200 -21z m-1953 -14 c28 -4 46 -8 41 -9 -6 0 -1
-7 9 -15 18 -13 18 -15 2 -30 -9 -10 -17 -21 -17 -26 0 -5 -18 -16 -40 -26
-22 -10 -40 -21 -40 -26 0 -24 -253 1 -328 33 -54 24 -62 33 -62 77 l0 32 193
-1 c105 0 215 -4 242 -9z m2435 -201 c0 -4 10 -6 22 -4 12 3 27 0 35 -6 15
-13 18 -33 3 -24 -13 8 -13 -1 0 -26 8 -14 7 -19 -2 -20 -7 0 -4 -4 7 -9 16
-7 16 -9 4 -9 -9 -1 -20 -8 -23 -17 -4 -11 -2 -15 8 -11 11 4 13 1 9 -10 -4
-10 -2 -14 5 -9 6 3 14 1 18 -5 5 -9 -1 -10 -22 -5 -16 4 -32 12 -35 18 -4 5
-9 3 -12 -6 -4 -9 1 -21 11 -28 35 -27 44 -44 27 -58 -13 -11 -14 -10 -10 2 3
8 0 20 -8 26 -12 10 -14 6 -11 -28 1 -23 -1 -38 -7 -35 -8 6 -13 -9 -10 -29 1
-5 -5 -6 -13 -3 -9 4 -18 1 -22 -5 -4 -7 -3 -8 4 -4 12 7 49 -41 38 -51 -3 -3
0 -13 7 -21 10 -13 9 -14 -1 -8 -7 4 -21 5 -30 1 -16 -6 -16 -7 0 -16 11 -6
15 -16 11 -26 -4 -11 -3 -14 5 -9 7 4 12 2 12 -3 0 -6 -6 -11 -12 -11 -9 0
-10 -2 -2 -8 13 -8 29 -52 26 -69 -2 -8 4 -10 15 -6 15 5 16 4 7 -8 -9 -11 -8
-17 4 -29 14 -13 15 -12 9 3 -3 9 -2 19 4 22 5 4 9 3 8 -2 -1 -4 0 -10 1 -13
1 -3 3 -18 5 -35 2 -16 1 -23 -1 -15 -3 8 -16 20 -30 27 -21 10 -23 9 -15 -1
6 -7 8 -16 4 -20 -4 -4 0 -4 10 0 12 4 17 1 17 -10 0 -9 -8 -16 -19 -16 -11 0
-22 -4 -25 -8 -3 -5 21 -6 53 -4 35 3 61 0 65 -6 9 -15 -22 -19 -324 -36 -455
-27 -517 -29 -535 -19 -12 7 16 12 101 17 66 4 160 11 209 17 50 5 116 10 147
11 44 2 58 7 58 18 0 13 1 13 10 0 8 -13 10 -12 10 3 0 9 7 17 16 17 14 0 14
2 -1 16 -9 10 -14 25 -12 35 3 10 2 18 -2 17 -20 -2 -22 5 -5 25 17 20 16 20
-9 -2 -29 -27 -45 -23 -28 6 6 10 11 14 11 10 0 -5 5 -5 11 -1 8 4 7 9 -2 15
-7 4 -18 4 -24 -1 -8 -7 -11 -3 -10 10 1 21 15 41 15 22 0 -7 4 -12 9 -12 5 0
8 10 7 23 -2 20 1 23 21 19 29 -5 29 1 1 28 -17 16 -19 20 -5 15 14 -6 17 -3
14 15 -2 12 -10 26 -18 32 -11 8 -10 9 4 4 12 -4 17 -2 15 6 -3 7 -10 13 -16
13 -7 0 -12 5 -11 10 0 6 7 9 15 7 8 -2 14 2 14 8 0 5 -7 10 -16 10 -10 0 -14
6 -11 15 4 8 2 17 -3 20 -5 3 -7 12 -3 20 4 11 0 14 -13 10 -11 -3 -1 3 21 13
22 11 47 17 55 15 12 -4 12 -3 1 5 -7 5 -22 7 -32 5 -11 -3 -19 0 -19 6 0 7
-4 10 -9 7 -5 -3 -8 7 -7 23 0 16 4 27 9 24 4 -2 5 -9 2 -14 -4 -5 -4 -9 -1
-9 2 0 13 -3 23 -6 15 -5 15 -4 3 5 -8 5 -11 13 -7 17 3 4 13 1 21 -5 10 -8
16 -9 21 -1 3 5 -1 10 -9 10 -9 0 -16 5 -16 11 0 6 -7 9 -15 6 -8 -4 -17 -1
-21 5 -4 7 -3 8 4 4 8 -5 12 2 12 19 0 14 -4 24 -9 20 -5 -3 -12 -1 -16 5 -5
9 7 14 27 11 4 0 5 6 2 14 -7 18 -16 19 -33 3 -11 -11 -11 -9 0 9 7 12 17 19
21 17 4 -3 8 0 8 6 0 7 31 10 90 8 50 -1 90 -5 90 -9z m-2545 -9 c39 -4 63 -8
54 -8 -26 -3 -42 -30 -44 -75 0 -23 -3 -47 -6 -52 -3 -6 -5 -19 -5 -30 1 -11
-3 -23 -9 -27 -6 -5 -5 -8 3 -8 10 0 10 -5 1 -22 -7 -13 -13 -40 -14 -60 -1
-20 -7 -43 -13 -51 -7 -7 -9 -17 -5 -20 3 -4 -11 -7 -33 -7 -66 -1 -117 -11
-160 -31 -55 -26 -81 -24 -113 9 -27 26 -28 31 -30 147 -2 66 -4 140 -6 165
-7 83 -13 80 158 79 84 -1 184 -5 222 -9z m2315 -24 c0 -2 -7 -7 -16 -10 -8
-3 -12 -2 -9 4 6 10 25 14 25 6z m308 -161 c-3 -3 -9 2 -12 12 -6 14 -5 15 5
6 7 -7 10 -15 7 -18z m-51 -100 c-4 -8 -2 -17 3 -20 6 -4 10 -11 10 -16 0 -6
-7 -4 -15 5 -13 13 -12 46 2 46 3 0 3 -7 0 -15z m-249 -20 c-3 -3 -9 2 -12 12
-6 14 -5 15 5 6 7 -7 10 -15 7 -18z m287 15 c3 -5 1 -10 -4 -10 -6 0 -11 5
-11 10 0 6 2 10 4 10 3 0 8 -4 11 -10z m-10 -170 c-3 -5 2 -10 11 -10 19 0 11
-13 -9 -16 -7 -1 -14 7 -14 17 -1 11 3 19 8 19 6 0 7 -4 4 -10z m-283 -110
c-3 -3 -7 1 -9 8 -3 6 -8 10 -13 7 -4 -3 -6 4 -3 16 5 20 6 20 18 -3 6 -13 10
-25 7 -28z m-3292 -5 c36 -8 82 -14 102 -15 20 0 39 -4 43 -10 3 -5 -10 -26
-29 -47 -28 -32 -35 -50 -45 -113 -22 -153 -41 -328 -46 -440 -4 -63 -8 -131
-11 -150 -4 -34 -13 -1101 -17 -2125 -2 -511 -3 -521 -24 -565 -19 -39 -29
-48 -73 -63 -28 -10 -54 -16 -59 -13 -5 3 -12 32 -16 63 -9 70 -9 2588 0 2758
13 255 57 703 70 726 8 12 28 11 105 -6z m3324 -1 c9 -3 16 -13 16 -21 0 -8
-5 -11 -10 -8 -6 3 -13 0 -16 -8 -2 -7 -10 -14 -17 -14 -15 0 -17 39 -3 49 13
9 11 9 30 2z m251 -134 c-3 -5 -30 -9 -58 -8 l-52 1 45 7 c69 11 72 11 65 0z
m-308 -26 c-3 -3 -12 -4 -19 -1 -8 3 -5 6 6 6 11 1 17 -2 13 -5z m91 -1 c-16
-2 -40 -2 -55 0 -16 2 -3 4 27 4 30 0 43 -2 28 -4z m232 -23 c25 -1 36 -5 26
-7 -19 -5 -19 -6 2 -22 21 -15 21 -18 7 -38 -9 -12 -31 -25 -50 -29 -50 -9
-43 -29 13 -40 37 -7 48 -14 50 -30 2 -12 13 -26 25 -31 21 -10 21 -10 -11
-27 -29 -15 -120 -44 -241 -76 -42 -11 -43 -12 -37 -43 22 -101 20 -113 -18
-142 -47 -35 -126 -42 -259 -21 -107 16 -139 31 -159 73 -9 20 -21 28 -38 28
-28 0 -28 4 -16 -118 7 -82 6 -90 -13 -108 -12 -11 -22 -15 -26 -9 -4 6 -13 7
-23 2 -23 -11 -63 -7 -72 8 -4 6 -18 11 -31 10 -33 -3 -89 11 -89 22 0 5 -5 6
-11 2 -6 -3 -10 1 -9 12 4 33 0 45 -10 39 -5 -3 -10 -3 -11 2 0 4 -3 21 -5 37
-4 20 0 32 10 38 20 11 21 38 2 38 -21 0 -30 19 -16 35 10 12 9 16 -4 21 -21
8 -21 24 0 24 16 0 15 25 -2 26 -5 0 -25 4 -44 9 l-35 8 30 9 c17 6 67 13 113
17 96 9 123 25 74 43 -18 7 -32 17 -32 23 1 22 27 45 65 55 6 2 16 10 23 19
11 13 12 13 7 1 -4 -10 -2 -9 8 3 17 20 28 22 23 5 -1 -7 -1 -10 1 -5 3 4 11
7 19 7 8 0 14 5 14 10 0 6 -4 10 -10 10 -5 0 -10 5 -10 11 0 5 4 8 8 5 5 -3 9
1 9 9 0 8 -4 12 -9 9 -4 -3 -8 -1 -8 4 0 5 -2 25 -5 43 -4 26 -3 30 4 14 8
-17 10 -17 10 -3 1 16 23 17 263 18 144 0 263 1 264 3 3 2 162 0 234 -3z
m-2885 -10 c33 -6 114 -15 180 -20 144 -13 165 -16 178 -29 10 -10 13 -68 5
-113 -3 -16 -2 -28 3 -28 5 0 6 -6 4 -12 -8 -23 11 -39 63 -52 71 -19 112 -39
112 -53 0 -7 -6 -13 -13 -13 -21 0 -48 -35 -41 -54 3 -9 1 -16 -5 -16 -6 0
-11 -15 -11 -32 0 -25 -3 -29 -10 -18 -8 13 -10 12 -10 -2 0 -10 5 -18 11 -18
6 0 9 -14 7 -32 -2 -24 -9 -34 -23 -36 -50 -7 -65 -13 -59 -23 3 -6 -2 -16
-12 -24 -16 -12 -21 -11 -36 5 -9 10 -20 35 -24 56 -9 48 -72 176 -84 169 -5
-3 -10 -1 -12 5 -2 6 -31 11 -66 12 -90 2 -76 18 16 18 65 0 83 4 102 20 13
11 30 20 38 20 9 0 13 2 11 4 -2 3 -86 10 -185 17 l-182 12 -4 107 c-2 71 -8
113 -17 124 -16 19 -14 19 64 6z m2099 -22 c8 -32 7 -68 -1 -68 -5 0 -8 16 -9
36 0 20 -7 40 -15 45 -12 7 -11 9 2 9 9 0 19 -10 23 -22z m-909 -256 c-3 -3
-11 0 -18 7 -9 10 -8 11 6 5 10 -3 15 -9 12 -12z m115 -22 c34 -2 33 -2 -24
-22 -43 -15 -60 -17 -66 -9 -4 7 -33 15 -66 18 -45 5 -53 8 -34 13 22 6 68 6
190 0z m-660 -24 c0 -8 11 -23 25 -34 28 -22 33 -34 10 -26 -11 5 -15 -1 -15
-20 0 -30 -5 -32 -27 -10 -9 8 -22 13 -29 10 -8 -3 -14 1 -14 10 0 8 -4 13 -9
9 -5 -3 -12 -1 -16 5 -3 5 -1 10 5 10 7 0 9 8 5 20 -9 28 2 40 36 40 18 0 29
-5 29 -14z m-10 -112 c0 -2 -9 -4 -20 -4 -11 0 -20 4 -20 9 0 5 9 7 20 4 11
-3 20 -7 20 -9z m1650 -204 c0 -5 25 -10 55 -10 47 0 57 -3 70 -24 20 -30 30
-34 104 -42 57 -6 59 -5 72 22 17 34 45 42 166 51 l92 6 10 -27 c6 -14 15 -26
20 -26 5 0 16 -18 25 -39 11 -30 24 -43 51 -52 19 -7 35 -16 35 -19 0 -3 16
-14 35 -24 l35 -19 -3 -234 c-2 -128 0 -239 4 -245 4 -7 3 -20 -2 -30 -7 -12
-6 -18 1 -18 6 0 9 -4 6 -8 -5 -8 -6 -25 -7 -147 0 -33 -1 -69 -3 -80 -2 -11
1 -30 5 -42 5 -13 5 -23 0 -23 -4 0 -6 -26 -5 -57 6 -105 5 -253 -1 -263 -3
-5 -3 -10 2 -10 7 0 8 -298 4 -785 0 -44 1 -91 3 -105 2 -14 0 -35 -5 -46 -4
-12 -5 -25 -2 -28 5 -5 7 -78 4 -186 -1 -25 1 -96 3 -157 3 -73 1 -113 -5
-113 -6 0 -7 -5 -3 -12 4 -6 8 -282 10 -612 2 -331 5 -610 7 -621 3 -11 2 -24
0 -28 -8 -14 -6 -134 2 -148 5 -7 4 -10 -2 -6 -14 9 -12 -45 2 -55 7 -5 7 -8
0 -8 -6 0 -9 -17 -8 -37 2 -55 5 -177 3 -183 -5 -17 -4 -120 1 -120 8 0 3 -45
-6 -59 -3 -6 -3 -11 2 -11 10 0 8 -104 -3 -121 -4 -7 -3 -10 2 -7 5 4 8 -33 7
-85 -1 -51 -2 -168 -2 -262 1 -799 -1 -1105 -10 -1127 -12 -32 -97 -60 -252
-84 -91 -14 -181 -18 -441 -19 -179 0 -329 3 -332 6 -3 3 -7 18 -8 32 -1 15
-5 27 -9 27 -6 0 -5 23 1 40 1 3 2 8 2 11 -1 3 -3 25 -6 49 -3 25 -1 49 6 57
7 9 7 13 0 13 -6 0 -10 9 -9 20 1 11 5 20 9 20 5 0 5 8 0 18 -9 20 -8 159 1
169 10 9 -14 34 -26 26 -6 -3 -7 -1 -3 6 4 6 13 8 19 4 7 -4 5 2 -3 12 -8 10
-10 16 -4 12 14 -8 13 55 -1 65 -6 4 -2 8 9 8 15 0 16 3 6 15 -6 8 -9 19 -5
24 3 6 2 26 -3 45 -7 23 -6 38 1 45 8 8 8 14 -1 23 -14 14 -16 32 -3 23 5 -3
12 -1 16 5 3 5 2 10 -3 10 -11 0 -10 115 0 126 4 4 0 13 -10 20 -9 7 -12 14
-6 14 14 0 14 73 0 82 -7 5 -4 8 6 8 14 0 16 5 9 23 -4 12 -7 57 -7 99 1 43
-2 78 -6 78 -4 0 -3 12 2 26 12 30 12 37 3 31 -7 -4 -8 69 -2 83 5 11 5 88 -1
85 -3 -2 -5 10 -5 25 0 15 3 26 7 23 5 -2 4 7 -2 21 -6 17 -6 27 1 32 6 3 6
10 1 17 -5 7 -6 21 -2 32 4 11 3 33 -1 50 -5 16 -5 31 -1 33 5 1 6 22 2 46 -3
23 -3 51 0 62 4 10 3 29 -1 42 -6 16 -6 21 2 16 8 -5 8 -1 0 14 -7 13 -7 23
-1 27 6 4 6 15 0 30 -5 14 -6 25 -1 25 8 0 8 28 1 38 -6 7 -3 49 3 60 5 6 3
21 -3 32 -6 11 -7 20 -3 20 9 0 11 86 2 94 -7 7 -2 96 6 121 6 16 5 17 -4 5
-7 -9 -11 -10 -11 -3 0 6 5 15 10 18 6 3 10 11 10 16 0 6 -4 8 -8 5 -5 -3 -7
14 -5 37 10 118 10 147 -1 147 -6 0 -4 5 4 10 12 8 13 13 2 30 -7 11 -8 20 -3
20 10 0 7 32 -4 50 -3 6 -1 10 5 10 7 0 8 6 0 19 -5 11 -6 22 -2 25 5 3 9 19
10 36 0 17 -3 28 -8 25 -11 -7 -7 29 5 37 6 5 5 8 -2 8 -7 0 -13 5 -13 11 0 5
4 8 9 4 6 -3 9 12 8 35 -1 22 -4 40 -7 40 -3 0 -5 29 -5 64 0 35 3 62 8 59 10
-6 9 9 -3 27 -6 9 -5 19 2 28 7 8 8 16 2 20 -9 7 -13 172 -4 172 8 0 5 164 -4
178 -4 7 -2 12 6 12 10 0 9 3 -2 11 -11 8 -12 12 -2 16 6 2 9 10 5 16 -9 14
-11 107 -3 102 8 -5 5 70 -4 83 -3 6 -2 13 3 16 8 5 8 37 -2 123 -2 18 0 34 3
35 4 2 4 40 1 86 -4 45 -3 89 1 97 5 7 4 17 -2 20 -6 4 -8 11 -4 16 3 5 11 6
17 2 7 -4 6 0 -2 10 -7 9 -10 17 -7 17 4 0 4 6 -1 13 -11 17 -10 40 2 56 8 12
7 13 -4 6 -10 -6 -12 -4 -5 6 12 20 12 62 0 78 -8 10 -8 15 1 18 8 3 9 12 3
29 -5 13 -6 24 -2 24 7 0 7 12 0 80 -4 43 3 81 14 74 8 -5 8 -3 2 7 -5 8 -9
41 -10 74 0 33 -4 79 -8 102 -6 35 -5 44 9 49 12 5 13 9 4 14 -7 5 -13 22 -13
38 -1 17 2 28 6 26 4 -2 7 21 7 51 0 30 -4 55 -9 55 -4 0 -2 23 5 50 7 28 9
48 5 45 -5 -3 -11 -1 -14 4 -4 5 -2 12 3 16 7 4 6 15 -1 31 -9 19 -9 27 0 33
8 5 11 27 7 70 -3 44 -1 60 7 55 7 -5 8 -3 2 7 -13 22 -16 94 -5 134 6 23 6
33 -1 29 -6 -4 -8 3 -7 17 2 13 -1 30 -5 38 -6 9 -5 12 2 7 6 -3 13 -2 17 4 3
5 2 10 -4 10 -12 0 -12 108 0 116 5 3 5 13 -1 23 -5 10 -7 21 -4 23 2 3 0 17
-6 32 -5 15 -6 25 -1 22 8 -5 13 56 10 114 -1 14 -2 49 -2 78 0 31 -4 52 -11
52 -8 0 -8 2 0 8 14 9 27 45 14 37 -6 -3 -10 -1 -10 4 0 6 6 11 13 11 9 0 8 3
-2 9 -8 5 -10 14 -5 22 14 24 11 64 -8 96 -20 34 -67 73 -89 73 -26 0 -88 35
-84 48 2 6 1 12 -4 12 -17 0 -4 46 17 58 12 7 20 17 18 21 -5 8 105 26 234 37
40 3 92 12 115 19 50 16 75 18 75 5z m-1878 -47 c-3 -14 0 -28 6 -32 6 -4 13
-28 16 -54 l5 -47 -49 0 -48 0 5 68 c7 83 13 93 13 21 0 -57 6 -72 29 -77 10
-2 12 14 10 76 -3 55 -1 78 7 75 6 -2 9 -16 6 -30z m-2656 -4079 c-23 -17 -36
-18 -36 -4 0 12 42 31 50 23 3 -3 -4 -11 -14 -19z m-99 0 c-3 -3 -12 -4 -19
-1 -8 3 -5 6 6 6 11 1 17 -2 13 -5z m463 -4 c0 -5 -5 -10 -11 -10 -5 0 -7 5
-4 10 3 6 8 10 11 10 2 0 4 -4 4 -10z m6498 -15 c-3 -3 -9 2 -12 12 -6 14 -5
15 5 6 7 -7 10 -15 7 -18z m672 17 c0 -5 -7 -9 -15 -9 -8 0 -12 4 -9 9 3 4 9
8 15 8 5 0 9 -4 9 -8z m950 -23 c0 -6 -4 -7 -10 -4 -5 3 -10 11 -10 16 0 6 5
7 10 4 6 -3 10 -11 10 -16z m180 17 c0 -3 -4 -8 -10 -11 -5 -3 -10 -1 -10 4 0
6 5 11 10 11 6 0 10 -2 10 -4z"/>
<path d="M6340 8245 c-11 -13 -10 -14 4 -9 9 3 16 10 16 15 0 13 -6 11 -20 -6z"/>
<path d="M6399 8188 c6 -16 7 -28 2 -28 -5 0 -11 -7 -15 -15 -4 -12 -2 -13 14
-2 20 12 19 40 -2 62 -5 6 -5 -2 1 -17z"/>
<path d="M6207 8167 c-5 -14 19 -54 28 -45 3 3 -1 11 -9 17 -8 7 -12 19 -9 27
3 8 3 14 0 14 -3 0 -7 -6 -10 -13z"/>
<path d="M6257 8147 c-3 -8 3 -13 17 -14 11 0 15 1 8 4 -6 3 -10 9 -6 14 3 5
1 9 -4 9 -6 0 -12 -6 -15 -13z"/>
<path d="M6280 8102 c0 -7 -6 -12 -14 -12 -8 0 -17 -4 -20 -9 -4 -5 3 -7 14
-4 22 6 35 21 26 30 -3 4 -6 1 -6 -5z"/>
<path d="M6285 8060 c3 -5 8 -10 11 -10 2 0 4 5 4 10 0 6 -5 10 -11 10 -5 0
-7 -4 -4 -10z"/>
<path d="M6387 8050 c3 -11 9 -17 15 -14 5 3 4 12 -3 20 -16 19 -18 18 -12 -6z"/>
<path d="M6245 8052 c-13 -9 -17 -32 -6 -32 5 0 11 9 14 20 6 22 6 22 -8 12z"/>
<path d="M6348 8053 c-19 -5 -25 -23 -7 -23 5 0 7 -4 4 -10 -3 -5 -1 -10 5
-10 7 0 10 6 7 14 -3 7 0 19 6 25 6 6 9 10 7 10 -3 -1 -13 -3 -22 -6z"/>
<path d="M6230 7996 c0 -2 8 -10 18 -17 15 -13 16 -12 3 4 -13 16 -21 21 -21
13z"/>
<path d="M6262 7759 c-9 -4 21 -7 67 -8 47 -1 82 1 79 5 -9 8 -124 11 -146 3z"/>
<path d="M5710 7581 c0 -7 86 -8 93 -1 3 3 -17 6 -44 6 -27 1 -49 -1 -49 -5z"/>
<path d="M6150 7581 c0 -5 9 -7 20 -4 11 3 20 7 20 9 0 2 -9 4 -20 4 -11 0
-20 -4 -20 -9z"/>
<path d="M5730 7526 c0 -8 4 -17 9 -20 5 -4 7 3 4 14 -6 23 -13 26 -13 6z"/>
<path d="M5768 7513 c7 -3 16 -2 19 1 4 3 -2 6 -13 5 -11 0 -14 -3 -6 -6z"/>
<path d="M435 2840 c3 -5 8 -10 11 -10 2 0 4 5 4 10 0 6 -5 10 -11 10 -5 0 -7
-4 -4 -10z"/>
<path d="M2395 2840 c3 -5 11 -10 16 -10 6 0 7 5 4 10 -3 6 -11 10 -16 10 -6
0 -7 -4 -4 -10z"/>
<path d="M8410 2836 c0 -2 7 -9 15 -16 9 -7 15 -8 15 -2 0 5 -7 12 -15 16 -8
3 -15 4 -15 2z"/>
<path d="M6788 2823 c7 -3 16 -2 19 1 4 3 -2 6 -13 5 -11 0 -14 -3 -6 -6z"/>
<path d="M9248 2823 c7 -3 16 -2 19 1 4 3 -2 6 -13 5 -11 0 -14 -3 -6 -6z"/>
<path d="M9397 2819 c7 -7 15 -10 18 -7 3 3 -2 9 -12 12 -14 6 -15 5 -6 -5z"/>
<path d="M310 531 c0 -5 9 -7 20 -4 11 3 20 7 20 9 0 2 -9 4 -20 4 -11 0 -20
-4 -20 -9z"/>
<path d="M10080 80 l0 -80 80 0 80 0 0 80 0 80 -80 0 -80 0 0 -80z"/>
</g>
</svg>
